<svg width="83" height="113" viewBox="0 0 83 113" fill="none" xmlns="http://www.w3.org/2000/svg">
<path d="M26.0776 4.14915L53.5938 106.841C54.0941 108.708 52.9861 110.628 51.119 111.128C49.2518 111.628 47.3327 110.52 46.8324 108.653L19.3161 5.96089C18.8158 4.09376 19.9238 2.17458 21.791 1.67428C23.6581 1.17398 25.5773 2.28202 26.0776 4.14915Z" fill="#D09DF4" stroke="#4E1ACF"/>
<path d="M17.5479 55.656H27.5479C29.4808 55.656 31.0479 57.223 31.0479 59.156C31.0479 61.089 29.4808 62.656 27.5479 62.656H17.5479C15.6149 62.656 14.0479 61.089 14.0479 59.156C14.0479 57.223 15.6149 55.656 17.5479 55.656Z" fill="#D09DF4" stroke="#4E1ACF"/>
<path d="M26.0136 5.80485L8.27973 71.9885C7.77943 73.8556 5.86025 74.9637 3.99312 74.4634C2.12599 73.9631 1.01795 72.0439 1.51825 70.1767L19.2521 3.99311C19.7524 2.12598 21.6716 1.01794 23.5387 1.51824C25.4058 2.01854 26.5139 3.93771 26.0136 5.80485Z" fill="#D09DF4" stroke="#4E1ACF"/>
<path d="M35.3805 3.38557L79.6963 56.199C80.9388 57.6798 80.7456 59.8874 79.2649 61.1299C77.7841 62.3724 75.5765 62.1793 74.334 60.6985L30.0182 7.88508C28.7757 6.40432 28.9689 4.19668 30.4496 2.95418C31.9304 1.71167 34.138 1.90481 35.3805 3.38557Z" fill="#D09DF4" stroke="#4E1ACF"/>
<path d="M47.0641 55.5H77.0641C78.9971 55.5 80.5641 57.067 80.5641 59C80.5641 60.933 78.9971 62.5 77.0641 62.5L47.0641 62.5C45.1311 62.5 43.5641 60.933 43.5641 59C43.5641 57.067 45.1311 55.5 47.0641 55.5Z" fill="#D09DF4" stroke="#4E1ACF"/>
</svg>
