<svg width="2188" height="258" viewBox="0 0 2188 258" fill="none" xmlns="http://www.w3.org/2000/svg">
<path d="M934.975 176.019C1006.44 172.223 1119.93 304.41 1120 232.849C1120.07 161.287 1104.97 0.0516052 1104.97 0.0516052L0 0.0516052V238.052C0 306.039 170.253 173.811 240.995 176.019C306.704 178.07 347.42 239.271 412.99 244.007C491.592 249.685 524.311 171.438 602.984 176.019C670.76 179.967 695.111 242.284 762.98 244.007C835.183 245.84 862.85 179.85 934.975 176.019Z" fill="#D09DF4"/>
<path d="M2017.97 176C2089.44 172.203 2187.9 308.623 2187.97 237.048C2188.04 165.474 2187.97 0 2187.97 0L1081 0V220.049C1081 319.049 1254.26 173.792 1325 176C1390.71 178.052 1430.4 239.263 1495.97 244C1574.57 249.679 1607.29 171.418 1685.97 176C1753.75 179.948 1778.1 242.277 1845.97 244C1918.18 245.833 1945.84 179.832 2017.97 176Z" fill="#D09DF4"/>
</svg>
