<svg width="2188" height="258" viewBox="0 0 2188 258" fill="none" xmlns="http://www.w3.org/2000/svg">
<path d="M1253.03 81.829C1181.56 85.625 1068.07 -46.5615 1068 25C1067.93 96.5615 1083.03 257.797 1083.03 257.797H2188V19.7969C2188 -48.1907 2017.75 84.0371 1947.01 81.829C1881.3 79.7781 1840.58 18.5779 1775.01 13.8414C1696.41 8.16364 1663.69 86.4107 1585.02 81.829C1517.24 77.882 1492.89 15.5641 1425.02 13.8414C1352.82 12.0088 1325.15 77.9981 1253.03 81.829Z" fill="#D84F74"/>
<path d="M170.03 81.8483C98.5608 85.6451 0.0987578 -50.7744 0.030387 20.8002C-0.0379838 92.3747 0.030387 257.849 0.030387 257.849H1107V37.7997C1107 -61.2001 933.744 84.0567 863 81.8482C797.289 79.7969 757.602 18.5858 692.03 13.8485C613.427 8.16962 580.706 86.4308 502.03 81.8483C434.252 77.9006 409.901 15.5714 342.03 13.8485C269.825 12.0155 242.158 78.0167 170.03 81.8483Z" fill="#D84F74"/>
</svg>
