<svg width="163" height="163" viewBox="0 0 163 163" fill="none" xmlns="http://www.w3.org/2000/svg">
<circle cx="81.5" cy="81.5" r="81.5" fill="url(#paint0_linear_3_79)"/>
<path d="M66.0776 29.1492L93.5938 131.841C94.0941 133.708 92.9861 135.628 91.119 136.128C89.2518 136.628 87.3327 135.52 86.8324 133.653L59.3161 30.9609C58.8158 29.0938 59.9238 27.1746 61.791 26.6743C63.6581 26.174 65.5773 27.282 66.0776 29.1492Z" fill="#D09DF4" stroke="#4E1ACF"/>
<path d="M57.5479 80.656H67.5479C69.4808 80.656 71.0479 82.223 71.0479 84.156C71.0479 86.089 69.4808 87.656 67.5479 87.656H57.5479C55.6149 87.656 54.0479 86.089 54.0479 84.156C54.0479 82.223 55.6149 80.656 57.5479 80.656Z" fill="#D09DF4" stroke="#4E1ACF"/>
<path d="M66.0136 30.8048L48.2797 96.9885C47.7794 98.8556 45.8603 99.9637 43.9931 99.4634C42.126 98.9631 41.018 97.0439 41.5182 95.1767L59.2521 28.9931C59.7524 27.126 61.6716 26.0179 63.5387 26.5182C65.4058 27.0185 66.5139 28.9377 66.0136 30.8048Z" fill="#D09DF4" stroke="#4E1ACF"/>
<path d="M75.3805 28.3856L119.696 81.199C120.939 82.6798 120.746 84.8874 119.265 86.1299C117.784 87.3724 115.576 87.1793 114.334 85.6985L70.0182 32.8851C68.7757 31.4043 68.9689 29.1967 70.4496 27.9542C71.9304 26.7117 74.138 26.9048 75.3805 28.3856Z" fill="#D09DF4" stroke="#4E1ACF"/>
<path d="M87.0641 80.5H117.064C118.997 80.5 120.564 82.067 120.564 84C120.564 85.933 118.997 87.5 117.064 87.5H87.0641C85.1311 87.5 83.5641 85.933 83.5641 84C83.5641 82.067 85.1311 80.5 87.0641 80.5Z" fill="#D09DF4" stroke="#4E1ACF"/>
<defs>
<linearGradient id="paint0_linear_3_79" x1="0" y1="81.5" x2="163" y2="81.5" gradientUnits="userSpaceOnUse">
<stop stop-color="#D84F74"/>
<stop offset="1" stop-color="#F7BAD3"/>
</linearGradient>
</defs>
</svg>
